<?xml version="1.0" standalone="no"?>
<!DOCTYPE svg PUBLIC "-//W3C//DTD SVG 20010904//EN"
 "http://www.w3.org/TR/2001/REC-SVG-20010904/DTD/svg10.dtd">
<svg version="1.0" xmlns="http://www.w3.org/2000/svg"
 width="512.000000pt" height="512.000000pt" viewBox="0 0 512.000000 512.000000"
 preserveAspectRatio="xMidYMid meet">
<metadata>
Created by potrace 1.14, written by Peter Selinger 2001-2017
</metadata>
<g transform="translate(0.000000,512.000000) scale(0.100000,-0.100000)"
fill="#000000" stroke="none">
<path d="M1233 5100 c-42 -25 -63 -73 -191 -425 -73 -200 -79 -208 -155 -219
-48 -8 -84 -31 -103 -69 -13 -24 -16 -71 -16 -248 l-1 -218 27 -36 c38 -49 56
-56 148 -58 71 -2 81 -4 84 -21 3 -20 11 -139 20 -281 3 -49 7 -103 9 -120 2
-16 7 -78 11 -137 6 -104 6 -108 -14 -108 -34 0 -52 -11 -68 -43 -16 -29 -15
-84 1 -242 3 -22 7 -83 10 -135 11 -175 15 -235 21 -299 3 -35 7 -98 10 -140
2 -42 6 -105 9 -141 3 -36 7 -99 10 -140 10 -161 24 -358 30 -420 2 -25 7 -92
10 -150 4 -58 8 -118 11 -135 6 -39 47 -75 85 -75 19 0 29 -5 30 -15 1 -8 2
-18 3 -22 1 -5 6 -62 10 -128 4 -66 9 -136 11 -155 2 -19 6 -80 10 -135 3 -55
8 -116 10 -135 2 -19 6 -78 10 -130 3 -52 8 -120 10 -150 13 -162 117 -299
267 -351 50 -17 109 -18 1038 -16 l985 2 58 28 c113 56 198 171 217 295 5 32
12 107 16 167 3 61 8 117 9 125 2 8 6 71 10 140 3 69 8 132 10 140 2 8 7 70
10 138 4 67 8 130 10 140 2 9 4 27 4 40 1 18 7 22 35 22 65 0 82 33 91 175 3
61 8 126 10 145 1 19 6 87 9 150 4 63 8 126 11 140 2 14 7 75 10 135 4 61 8
126 10 145 1 19 6 82 9 140 4 58 9 128 11 155 3 28 7 85 10 128 12 176 16 235
20 282 2 28 7 100 10 162 7 111 7 112 -19 138 -14 14 -37 25 -52 25 l-26 0 6
83 c4 45 8 109 11 142 3 33 7 92 9 130 15 212 19 271 22 285 1 8 3 17 3 20 1
3 34 5 74 5 89 1 125 15 156 61 24 34 24 39 25 257 1 219 0 223 -23 256 -25
35 -74 61 -115 61 -39 0 -72 39 -101 120 -14 41 -33 91 -40 110 -8 19 -25 67
-40 105 -14 39 -31 81 -38 93 -17 36 -61 62 -109 67 -103 9 -191 15 -303 20
-66 3 -147 8 -180 10 -90 7 -283 19 -455 30 -58 3 -129 8 -159 10 -29 2 -101
7 -160 10 -58 4 -126 9 -151 10 -25 2 -97 6 -160 10 -63 3 -131 8 -150 9 -19
2 -91 7 -160 11 -69 4 -143 8 -165 10 -22 2 -94 7 -159 10 -66 4 -131 8 -146
10 -15 2 -82 6 -151 9 -112 6 -127 4 -156 -14z"/>
</g>
</svg>
